%TF.GenerationSoftware,KiCad,Pcbnew,10.0.6*%
%TF.CreationDate,2026-09-14T22:13:29+05:30*%
%TF.ProjectId,Led_Backlight,4c65645f-4261-4636-9b6c-696768742e6b,rev?*%
%TF.SameCoordinates,Original*%
%TF.FileFunction,Copper,L1,Top*%
%TF.FilePolarity,Positive*%
%FSLAX46Y46*%
G04 Gerber Fmt 4.6, Leading zero omitted, Abs format (unit mm)*
G04 Created by KiCad (PCBNEW 10.0.6) date 2026-09-14 22:13:29*
%MOMM*%
%LPD*%
G01*
G04 APERTURE LIST*
G04 Aperture macros list*
%AMRoundRect*
0 Rectangle with rounded corners*
0 $1 Rounding radius*
0 $2 $3 $4 $5 $6 $7 $8 $9 X,Y pos of 4 corners*
0 Add a 4 corners polygon primitive as box body*
4,1,4,$2,$3,$4,$5,$6,$7,$8,$9,$2,$3,0*
0 Add four circle primitives for the rounded corners*
1,1,$1+$1,$2,$3*
1,1,$1+$1,$4,$5*
1,1,$1+$1,$6,$7*
1,1,$1+$1,$8,$9*
0 Add four rect primitives between the rounded corners*
20,1,$1+$1,$2,$3,$4,$5,0*
20,1,$1+$1,$4,$5,$6,$7,0*
20,1,$1+$1,$6,$7,$8,$9,0*
20,1,$1+$1,$8,$9,$2,$3,0*%
G04 Aperture macros list end*
%TA.AperFunction,SMDPad,CuDef*%
%ADD10RoundRect,0.250000X0.262500X0.450000X-0.262500X0.450000X-0.262500X-0.450000X0.262500X-0.450000X0*%
%TD*%
%TA.AperFunction,SMDPad,CuDef*%
%ADD11RoundRect,0.250000X-0.262500X-0.450000X0.262500X-0.450000X0.262500X0.450000X-0.262500X0.450000X0*%
%TD*%
%TA.AperFunction,SMDPad,CuDef*%
%ADD12RoundRect,0.250000X0.375000X0.625000X-0.375000X0.625000X-0.375000X-0.625000X0.375000X-0.625000X0*%
%TD*%
%TA.AperFunction,SMDPad,CuDef*%
%ADD13RoundRect,0.250000X-0.375000X-0.625000X0.375000X-0.625000X0.375000X0.625000X-0.375000X0.625000X0*%
%TD*%
%TA.AperFunction,ComponentPad*%
%ADD14R,1.700000X1.700000*%
%TD*%
%TA.AperFunction,ComponentPad*%
%ADD15C,1.700000*%
%TD*%
%TA.AperFunction,Conductor*%
%ADD16C,1.500000*%
%TD*%
G04 APERTURE END LIST*
D10*
%TO.P,R6,1*%
%TO.N,Net-(D6-A)*%
X155912500Y-114000000D03*
%TO.P,R6,2*%
%TO.N,VCC*%
X154087500Y-114000000D03*
%TD*%
D11*
%TO.P,R1,1*%
%TO.N,Net-(D1-A)*%
X143587500Y-85600000D03*
%TO.P,R1,2*%
%TO.N,VCC*%
X145412500Y-85600000D03*
%TD*%
D10*
%TO.P,R4,1*%
%TO.N,Net-(D4-A)*%
X155912500Y-100000000D03*
%TO.P,R4,2*%
%TO.N,VCC*%
X154087500Y-100000000D03*
%TD*%
D12*
%TO.P,D4,1,K_1*%
%TO.N,GND*%
X162300000Y-100000000D03*
%TO.P,D4,2,A_2*%
%TO.N,Net-(D4-A)*%
X159500000Y-100000000D03*
%TD*%
D13*
%TO.P,D1,1,K_1*%
%TO.N,GND*%
X137700000Y-85600000D03*
%TO.P,D1,2,A_2*%
%TO.N,Net-(D1-A)*%
X140500000Y-85600000D03*
%TD*%
D10*
%TO.P,R2,1*%
%TO.N,Net-(D2-A)*%
X155900000Y-86100000D03*
%TO.P,R2,2*%
%TO.N,VCC*%
X154075000Y-86100000D03*
%TD*%
D14*
%TO.P,J1,1,Pin_1_1*%
%TO.N,VCC*%
X145460000Y-120100000D03*
D15*
%TO.P,J1,2,Pin_2_2*%
%TO.N,GND*%
X148000000Y-120100000D03*
%TO.P,J1,3,Pin_3_3*%
X150540000Y-120100000D03*
%TD*%
D13*
%TO.P,D5,1,K_1*%
%TO.N,GND*%
X138100000Y-113600000D03*
%TO.P,D5,2,A_2*%
%TO.N,Net-(D5-A)*%
X140900000Y-113600000D03*
%TD*%
D12*
%TO.P,D6,1,K_1*%
%TO.N,GND*%
X162300000Y-114000000D03*
%TO.P,D6,2,A_2*%
%TO.N,Net-(D6-A)*%
X159500000Y-114000000D03*
%TD*%
D13*
%TO.P,D3,1,K_1*%
%TO.N,GND*%
X138100000Y-99600000D03*
%TO.P,D3,2,A_2*%
%TO.N,Net-(D3-A)*%
X140900000Y-99600000D03*
%TD*%
D11*
%TO.P,R3,1*%
%TO.N,Net-(D3-A)*%
X143587500Y-99600000D03*
%TO.P,R3,2*%
%TO.N,VCC*%
X145412500Y-99600000D03*
%TD*%
D12*
%TO.P,D2,1,K_1*%
%TO.N,GND*%
X162300000Y-86000000D03*
%TO.P,D2,2,A_2*%
%TO.N,Net-(D2-A)*%
X159500000Y-86000000D03*
%TD*%
D11*
%TO.P,R5,1*%
%TO.N,Net-(D5-A)*%
X143587500Y-113600000D03*
%TO.P,R5,2*%
%TO.N,VCC*%
X145412500Y-113600000D03*
%TD*%
%TO.N,VCC*%
D16*
X145412500Y-112000000D02*
X145412500Y-112162500D01*
X145412500Y-112162500D02*
X146850000Y-113600000D01*
X146850000Y-113600000D02*
X147500000Y-114250000D01*
X145412500Y-113600000D02*
X146850000Y-113600000D01*
X147500000Y-114250000D02*
X147730000Y-114480000D01*
%TO.N,Net-(D6-A)*%
X159500000Y-114000000D02*
X156087500Y-114000000D01*
%TO.N,VCC*%
X145412500Y-112000000D02*
X145412500Y-85600000D01*
X146500000Y-115000000D02*
X147355000Y-115855000D01*
X146500000Y-115000000D02*
X146500000Y-116710000D01*
X148355000Y-114855000D02*
X147355000Y-115855000D01*
X145460000Y-117750000D02*
X145460000Y-113960000D01*
X145412500Y-113000000D02*
X145412500Y-112000000D01*
X145412500Y-113912500D02*
X145460000Y-113960000D01*
X154075000Y-113987500D02*
X154087500Y-114000000D01*
X154075000Y-86100000D02*
X154075000Y-113987500D01*
X146500000Y-116710000D02*
X145460000Y-117750000D01*
X154087500Y-114000000D02*
X149210000Y-114000000D01*
X149210000Y-114000000D02*
X148355000Y-114855000D01*
X145460000Y-117750000D02*
X145460000Y-120100000D01*
X145412500Y-113600000D02*
X145412500Y-113000000D01*
X145412500Y-113600000D02*
X145412500Y-113912500D01*
X145460000Y-113960000D02*
X146500000Y-115000000D01*
X147355000Y-115855000D02*
X146500000Y-116710000D01*
%TO.N,Net-(D1-A)*%
X140600000Y-85600000D02*
X143412500Y-85600000D01*
X140500000Y-85500000D02*
X140600000Y-85600000D01*
X140500000Y-85600000D02*
X140500000Y-85500000D01*
%TO.N,Net-(D4-A)*%
X156175000Y-100000000D02*
X156075000Y-100100000D01*
X159500000Y-100000000D02*
X156175000Y-100000000D01*
%TO.N,Net-(D2-A)*%
X156175000Y-86000000D02*
X156075000Y-86100000D01*
X159500000Y-86000000D02*
X156175000Y-86000000D01*
%TO.N,Net-(D5-A)*%
X140900000Y-113600000D02*
X143412500Y-113600000D01*
%TO.N,Net-(D3-A)*%
X140900000Y-99600000D02*
X143412500Y-99600000D01*
%TD*%
%TA.AperFunction,Conductor*%
%TO.N,GND*%
G36*
X166442539Y-79770185D02*
G01*
X166488294Y-79822989D01*
X166499500Y-79874500D01*
X166499500Y-123375500D01*
X166479815Y-123442539D01*
X166427011Y-123488294D01*
X166375500Y-123499500D01*
X133874500Y-123499500D01*
X133807461Y-123479815D01*
X133761706Y-123427011D01*
X133750500Y-123375500D01*
X133750500Y-85401577D01*
X139249500Y-85401577D01*
X139249500Y-85698422D01*
X139280290Y-85892826D01*
X139341116Y-86080025D01*
X139341119Y-86080032D01*
X139360985Y-86119021D01*
X139374500Y-86175314D01*
X139374500Y-86275000D01*
X139374501Y-86275019D01*
X139385000Y-86377796D01*
X139385001Y-86377799D01*
X139418876Y-86480025D01*
X139440186Y-86544334D01*
X139532288Y-86693656D01*
X139656344Y-86817712D01*
X139805666Y-86909814D01*
X139972203Y-86964999D01*
X140074991Y-86975500D01*
X140925008Y-86975499D01*
X140925016Y-86975498D01*
X140925019Y-86975498D01*
X140981302Y-86969748D01*
X141027797Y-86964999D01*
X141194334Y-86909814D01*
X141260568Y-86868961D01*
X141325664Y-86850500D01*
X143510922Y-86850500D01*
X143618922Y-86833393D01*
X143705326Y-86819709D01*
X143745769Y-86806568D01*
X143784087Y-86800499D01*
X143900002Y-86800499D01*
X143900008Y-86800499D01*
X144002797Y-86789999D01*
X144002799Y-86789998D01*
X144002801Y-86789998D01*
X144009420Y-86788582D01*
X144009913Y-86790889D01*
X144068790Y-86788848D01*
X144128842Y-86824562D01*
X144160053Y-86887074D01*
X144162000Y-86908964D01*
X144162000Y-98291035D01*
X144142315Y-98358074D01*
X144089511Y-98403829D01*
X144020353Y-98413773D01*
X144009464Y-98411207D01*
X144009420Y-98411418D01*
X144002803Y-98410001D01*
X143900016Y-98399500D01*
X143900009Y-98399500D01*
X143784085Y-98399500D01*
X143745767Y-98393431D01*
X143739084Y-98391259D01*
X143705326Y-98380290D01*
X143510922Y-98349500D01*
X143510917Y-98349500D01*
X141725664Y-98349500D01*
X141660568Y-98331039D01*
X141594340Y-98290189D01*
X141594335Y-98290187D01*
X141594334Y-98290186D01*
X141427797Y-98235001D01*
X141427795Y-98235000D01*
X141325010Y-98224500D01*
X140474998Y-98224500D01*
X140474980Y-98224501D01*
X140372203Y-98235000D01*
X140372200Y-98235001D01*
X140205668Y-98290185D01*
X140205663Y-98290187D01*
X140056342Y-98382289D01*
X139932289Y-98506342D01*
X139840187Y-98655663D01*
X139840185Y-98655668D01*
X139828747Y-98690186D01*
X139785001Y-98822203D01*
X139785001Y-98822204D01*
X139785000Y-98822204D01*
X139774500Y-98924983D01*
X139774500Y-99024685D01*
X139760985Y-99080979D01*
X139741119Y-99119967D01*
X139741116Y-99119974D01*
X139680290Y-99307173D01*
X139649500Y-99501577D01*
X139649500Y-99698422D01*
X139680290Y-99892826D01*
X139741116Y-100080025D01*
X139741119Y-100080032D01*
X139760985Y-100119021D01*
X139774500Y-100175314D01*
X139774500Y-100275000D01*
X139774501Y-100275019D01*
X139785000Y-100377796D01*
X139785001Y-100377799D01*
X139818876Y-100480025D01*
X139840186Y-100544334D01*
X139932288Y-100693656D01*
X140056344Y-100817712D01*
X140205666Y-100909814D01*
X140372203Y-100964999D01*
X140474991Y-100975500D01*
X141325008Y-100975499D01*
X141325016Y-100975498D01*
X141325019Y-100975498D01*
X141381302Y-100969748D01*
X141427797Y-100964999D01*
X141594334Y-100909814D01*
X141660568Y-100868961D01*
X141725664Y-100850500D01*
X143510922Y-100850500D01*
X143618922Y-100833393D01*
X143705326Y-100819709D01*
X143745769Y-100806568D01*
X143784087Y-100800499D01*
X143900002Y-100800499D01*
X143900008Y-100800499D01*
X144002797Y-100789999D01*
X144002799Y-100789998D01*
X144002801Y-100789998D01*
X144009420Y-100788582D01*
X144009913Y-100790889D01*
X144068790Y-100788848D01*
X144128842Y-100824562D01*
X144160053Y-100887074D01*
X144162000Y-100908964D01*
X144162000Y-112291035D01*
X144142315Y-112358074D01*
X144089511Y-112403829D01*
X144020353Y-112413773D01*
X144009464Y-112411207D01*
X144009420Y-112411418D01*
X144002803Y-112410001D01*
X143900016Y-112399500D01*
X143900009Y-112399500D01*
X143784085Y-112399500D01*
X143745767Y-112393431D01*
X143739084Y-112391259D01*
X143705326Y-112380290D01*
X143510922Y-112349500D01*
X143510917Y-112349500D01*
X141725664Y-112349500D01*
X141660568Y-112331039D01*
X141594340Y-112290189D01*
X141594335Y-112290187D01*
X141594334Y-112290186D01*
X141427797Y-112235001D01*
X141427795Y-112235000D01*
X141325010Y-112224500D01*
X140474998Y-112224500D01*
X140474980Y-112224501D01*
X140372203Y-112235000D01*
X140372200Y-112235001D01*
X140205668Y-112290185D01*
X140205663Y-112290187D01*
X140056342Y-112382289D01*
X139932289Y-112506342D01*
X139840187Y-112655663D01*
X139840185Y-112655668D01*
X139785001Y-112822203D01*
X139774500Y-112924983D01*
X139774500Y-113024685D01*
X139760985Y-113080979D01*
X139741119Y-113119967D01*
X139741116Y-113119974D01*
X139680290Y-113307173D01*
X139649500Y-113501577D01*
X139649500Y-113698422D01*
X139680290Y-113892826D01*
X139741116Y-114080025D01*
X139741119Y-114080032D01*
X139760985Y-114119021D01*
X139774500Y-114175314D01*
X139774500Y-114275000D01*
X139774501Y-114275019D01*
X139785000Y-114377796D01*
X139785001Y-114377799D01*
X139818876Y-114480025D01*
X139840186Y-114544334D01*
X139932288Y-114693656D01*
X140056344Y-114817712D01*
X140205666Y-114909814D01*
X140372203Y-114964999D01*
X140474991Y-114975500D01*
X141325008Y-114975499D01*
X141325016Y-114975498D01*
X141325019Y-114975498D01*
X141381302Y-114969748D01*
X141427797Y-114964999D01*
X141594334Y-114909814D01*
X141660568Y-114868961D01*
X141725664Y-114850500D01*
X143510922Y-114850500D01*
X143618922Y-114833393D01*
X143705326Y-114819709D01*
X143745769Y-114806568D01*
X143784087Y-114800499D01*
X143900002Y-114800499D01*
X143900008Y-114800499D01*
X144002797Y-114789999D01*
X144046494Y-114775518D01*
X144116323Y-114773116D01*
X144176365Y-114808847D01*
X144207558Y-114871366D01*
X144209500Y-114893224D01*
X144209500Y-118908561D01*
X144189815Y-118975600D01*
X144184767Y-118982872D01*
X144166204Y-119007668D01*
X144166202Y-119007671D01*
X144115908Y-119142517D01*
X144109501Y-119202116D01*
X144109501Y-119202123D01*
X144109500Y-119202135D01*
X144109500Y-120997870D01*
X144109501Y-120997876D01*
X144115908Y-121057483D01*
X144166202Y-121192328D01*
X144166206Y-121192335D01*
X144252452Y-121307544D01*
X144252455Y-121307547D01*
X144367664Y-121393793D01*
X144367671Y-121393797D01*
X144502517Y-121444091D01*
X144502516Y-121444091D01*
X144509444Y-121444835D01*
X144562127Y-121450500D01*
X146357872Y-121450499D01*
X146417483Y-121444091D01*
X146552331Y-121393796D01*
X146667546Y-121307546D01*
X146753796Y-121192331D01*
X146804091Y-121057483D01*
X146810500Y-120997873D01*
X146810499Y-119202128D01*
X146804091Y-119142517D01*
X146753796Y-119007669D01*
X146735233Y-118982872D01*
X146710816Y-118917408D01*
X146710500Y-118908561D01*
X146710500Y-118319336D01*
X146730185Y-118252297D01*
X146746819Y-118231655D01*
X147453828Y-117524646D01*
X148162577Y-116815895D01*
X148162584Y-116815890D01*
X148169644Y-116808830D01*
X148169646Y-116808829D01*
X148308829Y-116669646D01*
X148308830Y-116669644D01*
X148315890Y-116662584D01*
X148315895Y-116662577D01*
X149308829Y-115669645D01*
X149691655Y-115286819D01*
X149752978Y-115253334D01*
X149779336Y-115250500D01*
X154185922Y-115250500D01*
X154293922Y-115233393D01*
X154380327Y-115219709D01*
X154444967Y-115198705D01*
X154470681Y-115193279D01*
X154502797Y-115189999D01*
X154669334Y-115134814D01*
X154818656Y-115042712D01*
X154912319Y-114949049D01*
X154973642Y-114915564D01*
X155043334Y-114920548D01*
X155087681Y-114949049D01*
X155181344Y-115042712D01*
X155330666Y-115134814D01*
X155497203Y-115189999D01*
X155599991Y-115200500D01*
X155715912Y-115200499D01*
X155754231Y-115206567D01*
X155794674Y-115219709D01*
X155867577Y-115231255D01*
X155989078Y-115250500D01*
X155989083Y-115250500D01*
X158674336Y-115250500D01*
X158739432Y-115268961D01*
X158805659Y-115309810D01*
X158805660Y-115309810D01*
X158805666Y-115309814D01*
X158972203Y-115364999D01*
X159074991Y-115375500D01*
X159925008Y-115375499D01*
X159925016Y-115375498D01*
X159925019Y-115375498D01*
X159981302Y-115369748D01*
X160027797Y-115364999D01*
X160194334Y-115309814D01*
X160343656Y-115217712D01*
X160467712Y-115093656D01*
X160559814Y-114944334D01*
X160614999Y-114777797D01*
X160625500Y-114675009D01*
X160625499Y-114575314D01*
X160639014Y-114519020D01*
X160658884Y-114480025D01*
X160719709Y-114292826D01*
X160747237Y-114119021D01*
X160750500Y-114098422D01*
X160750500Y-113901577D01*
X160719709Y-113707173D01*
X160658881Y-113519967D01*
X160639014Y-113480976D01*
X160625499Y-113424682D01*
X160625499Y-113324998D01*
X160625498Y-113324981D01*
X160614999Y-113222203D01*
X160614998Y-113222200D01*
X160593502Y-113157330D01*
X160559814Y-113055666D01*
X160467712Y-112906344D01*
X160343656Y-112782288D01*
X160194334Y-112690186D01*
X160027797Y-112635001D01*
X160027795Y-112635000D01*
X159925010Y-112624500D01*
X159074998Y-112624500D01*
X159074980Y-112624501D01*
X158972203Y-112635000D01*
X158972200Y-112635001D01*
X158805668Y-112690185D01*
X158805659Y-112690189D01*
X158739432Y-112731039D01*
X158674336Y-112749500D01*
X155989078Y-112749500D01*
X155794675Y-112780290D01*
X155754228Y-112793432D01*
X155715913Y-112799500D01*
X155599999Y-112799500D01*
X155599980Y-112799501D01*
X155497203Y-112810000D01*
X155497202Y-112810001D01*
X155488502Y-112812884D01*
X155418674Y-112815284D01*
X155358632Y-112779552D01*
X155327441Y-112717031D01*
X155325500Y-112695177D01*
X155325500Y-101323930D01*
X155345185Y-101256891D01*
X155397989Y-101211136D01*
X155467147Y-101201192D01*
X155505795Y-101213445D01*
X155594969Y-101258882D01*
X155594971Y-101258882D01*
X155594974Y-101258884D01*
X155695318Y-101291487D01*
X155782173Y-101319709D01*
X155976578Y-101350500D01*
X155976583Y-101350500D01*
X156173422Y-101350500D01*
X156267666Y-101335572D01*
X156367826Y-101319709D01*
X156367829Y-101319708D01*
X156367830Y-101319708D01*
X156559659Y-101257379D01*
X156560004Y-101258443D01*
X156599932Y-101250500D01*
X158674336Y-101250500D01*
X158739432Y-101268961D01*
X158805659Y-101309810D01*
X158805660Y-101309810D01*
X158805666Y-101309814D01*
X158972203Y-101364999D01*
X159074991Y-101375500D01*
X159925008Y-101375499D01*
X159925016Y-101375498D01*
X159925019Y-101375498D01*
X159981302Y-101369748D01*
X160027797Y-101364999D01*
X160194334Y-101309814D01*
X160343656Y-101217712D01*
X160467712Y-101093656D01*
X160559814Y-100944334D01*
X160614999Y-100777797D01*
X160625500Y-100675009D01*
X160625499Y-100575314D01*
X160639014Y-100519020D01*
X160658884Y-100480025D01*
X160719709Y-100292826D01*
X160747237Y-100119021D01*
X160750500Y-100098422D01*
X160750500Y-99901577D01*
X160719709Y-99707173D01*
X160658881Y-99519967D01*
X160639014Y-99480976D01*
X160625499Y-99424682D01*
X160625499Y-99324998D01*
X160625498Y-99324981D01*
X160614999Y-99222203D01*
X160614998Y-99222200D01*
X160581124Y-99119975D01*
X160559814Y-99055666D01*
X160467712Y-98906344D01*
X160343656Y-98782288D01*
X160194334Y-98690186D01*
X160027797Y-98635001D01*
X160027795Y-98635000D01*
X159925010Y-98624500D01*
X159074998Y-98624500D01*
X159074980Y-98624501D01*
X158972203Y-98635000D01*
X158972200Y-98635001D01*
X158805668Y-98690185D01*
X158805659Y-98690189D01*
X158739432Y-98731039D01*
X158674336Y-98749500D01*
X156076578Y-98749500D01*
X155882176Y-98780290D01*
X155882171Y-98780291D01*
X155841731Y-98793431D01*
X155803415Y-98799500D01*
X155599999Y-98799500D01*
X155599980Y-98799501D01*
X155497203Y-98810000D01*
X155497202Y-98810001D01*
X155488502Y-98812884D01*
X155418674Y-98815284D01*
X155358632Y-98779552D01*
X155327441Y-98717031D01*
X155325500Y-98695177D01*
X155325500Y-87408964D01*
X155345185Y-87341925D01*
X155397989Y-87296170D01*
X155467147Y-87286226D01*
X155478040Y-87288793D01*
X155478086Y-87288582D01*
X155484701Y-87289998D01*
X155484703Y-87289999D01*
X155587491Y-87300500D01*
X155703412Y-87300499D01*
X155741731Y-87306567D01*
X155782174Y-87319709D01*
X155855077Y-87331255D01*
X155976578Y-87350500D01*
X155976583Y-87350500D01*
X156173422Y-87350500D01*
X156267666Y-87335572D01*
X156367826Y-87319709D01*
X156367829Y-87319708D01*
X156367830Y-87319708D01*
X156559659Y-87257379D01*
X156560004Y-87258443D01*
X156599932Y-87250500D01*
X158674336Y-87250500D01*
X158739432Y-87268961D01*
X158805659Y-87309810D01*
X158805660Y-87309810D01*
X158805666Y-87309814D01*
X158972203Y-87364999D01*
X159074991Y-87375500D01*
X159925008Y-87375499D01*
X159925016Y-87375498D01*
X159925019Y-87375498D01*
X159981302Y-87369748D01*
X160027797Y-87364999D01*
X160194334Y-87309814D01*
X160343656Y-87217712D01*
X160467712Y-87093656D01*
X160559814Y-86944334D01*
X160614999Y-86777797D01*
X160625500Y-86675009D01*
X160625499Y-86575314D01*
X160639014Y-86519020D01*
X160658884Y-86480025D01*
X160719709Y-86292826D01*
X160747237Y-86119021D01*
X160750500Y-86098422D01*
X160750500Y-85901577D01*
X160719709Y-85707173D01*
X160658881Y-85519967D01*
X160639014Y-85480976D01*
X160625499Y-85424682D01*
X160625499Y-85324998D01*
X160625498Y-85324981D01*
X160614999Y-85222203D01*
X160614998Y-85222200D01*
X160610017Y-85207169D01*
X160559814Y-85055666D01*
X160467712Y-84906344D01*
X160343656Y-84782288D01*
X160194334Y-84690186D01*
X160027797Y-84635001D01*
X160027795Y-84635000D01*
X159925010Y-84624500D01*
X159074998Y-84624500D01*
X159074980Y-84624501D01*
X158972203Y-84635000D01*
X158972200Y-84635001D01*
X158805668Y-84690185D01*
X158805659Y-84690189D01*
X158739432Y-84731039D01*
X158674336Y-84749500D01*
X156076578Y-84749500D01*
X155882172Y-84780291D01*
X155821348Y-84800053D01*
X155821348Y-84800054D01*
X155755608Y-84821414D01*
X155694971Y-84841117D01*
X155644029Y-84867073D01*
X155618089Y-84880291D01*
X155618085Y-84880292D01*
X155618085Y-84880293D01*
X155599243Y-84889892D01*
X155555558Y-84902762D01*
X155484709Y-84910000D01*
X155484702Y-84910001D01*
X155318168Y-84965185D01*
X155318163Y-84965187D01*
X155168842Y-85057289D01*
X155075181Y-85150951D01*
X155013858Y-85184436D01*
X154944166Y-85179452D01*
X154899819Y-85150951D01*
X154806157Y-85057289D01*
X154806156Y-85057288D01*
X154713388Y-85000069D01*
X154656836Y-84965187D01*
X154656831Y-84965185D01*
X154490298Y-84910001D01*
X154490290Y-84910000D01*
X154458175Y-84906719D01*
X154432463Y-84901293D01*
X154392989Y-84888467D01*
X154367824Y-84880290D01*
X154173422Y-84849500D01*
X154173417Y-84849500D01*
X153976583Y-84849500D01*
X153976578Y-84849500D01*
X153782172Y-84880291D01*
X153717535Y-84901293D01*
X153691819Y-84906720D01*
X153659710Y-84910000D01*
X153659702Y-84910001D01*
X153493168Y-84965185D01*
X153493163Y-84965187D01*
X153343842Y-85057289D01*
X153219785Y-85181346D01*
X153218708Y-85183093D01*
X153200859Y-85205664D01*
X153121177Y-85285346D01*
X153121176Y-85285348D01*
X153005476Y-85444594D01*
X152916117Y-85619970D01*
X152855290Y-85807173D01*
X152824500Y-86001577D01*
X152824500Y-112625500D01*
X152804815Y-112692539D01*
X152752011Y-112738294D01*
X152700500Y-112749500D01*
X149111579Y-112749500D01*
X149019194Y-112764132D01*
X148996097Y-112767791D01*
X148996096Y-112767791D01*
X148917174Y-112780290D01*
X148917173Y-112780290D01*
X148729969Y-112841117D01*
X148554594Y-112930476D01*
X148463742Y-112996484D01*
X148395355Y-113046171D01*
X148395353Y-113046173D01*
X148395352Y-113046173D01*
X148317681Y-113123845D01*
X148256358Y-113157330D01*
X148186666Y-113152346D01*
X148142319Y-113123845D01*
X146699319Y-111680845D01*
X146665834Y-111619522D01*
X146663000Y-111593164D01*
X146663000Y-85501577D01*
X146632209Y-85307173D01*
X146571382Y-85119970D01*
X146492516Y-84965187D01*
X146482024Y-84944595D01*
X146366328Y-84785354D01*
X146286644Y-84705670D01*
X146268784Y-84683082D01*
X146267712Y-84681344D01*
X146143657Y-84557289D01*
X146143656Y-84557288D01*
X145994334Y-84465186D01*
X145994331Y-84465185D01*
X145827798Y-84410001D01*
X145827790Y-84410000D01*
X145795675Y-84406719D01*
X145769963Y-84401293D01*
X145730489Y-84388467D01*
X145705324Y-84380290D01*
X145510922Y-84349500D01*
X145510917Y-84349500D01*
X145314083Y-84349500D01*
X145314078Y-84349500D01*
X145119672Y-84380291D01*
X145055035Y-84401293D01*
X145029319Y-84406720D01*
X144997210Y-84410000D01*
X144997202Y-84410001D01*
X144830668Y-84465185D01*
X144830663Y-84465187D01*
X144681342Y-84557289D01*
X144587681Y-84650951D01*
X144526358Y-84684436D01*
X144456666Y-84679452D01*
X144412319Y-84650951D01*
X144318657Y-84557289D01*
X144318656Y-84557288D01*
X144169334Y-84465186D01*
X144002797Y-84410001D01*
X144002795Y-84410000D01*
X143900016Y-84399500D01*
X143900009Y-84399500D01*
X143784085Y-84399500D01*
X143745767Y-84393431D01*
X143739084Y-84391259D01*
X143705326Y-84380290D01*
X143510922Y-84349500D01*
X143510917Y-84349500D01*
X141325664Y-84349500D01*
X141260568Y-84331039D01*
X141194340Y-84290189D01*
X141194335Y-84290187D01*
X141194334Y-84290186D01*
X141027797Y-84235001D01*
X141027795Y-84235000D01*
X140925010Y-84224500D01*
X140074998Y-84224500D01*
X140074980Y-84224501D01*
X139972203Y-84235000D01*
X139972200Y-84235001D01*
X139805668Y-84290185D01*
X139805663Y-84290187D01*
X139656342Y-84382289D01*
X139532289Y-84506342D01*
X139440187Y-84655663D01*
X139440185Y-84655668D01*
X139428747Y-84690186D01*
X139385001Y-84822203D01*
X139385001Y-84822204D01*
X139385000Y-84822204D01*
X139374500Y-84924983D01*
X139374340Y-84928139D01*
X139374179Y-84928130D01*
X139374179Y-84928132D01*
X139374155Y-84928129D01*
X139373678Y-84928105D01*
X139360985Y-84980977D01*
X139340669Y-85020848D01*
X139339608Y-85024612D01*
X139280291Y-85207169D01*
X139280291Y-85207172D01*
X139249500Y-85401577D01*
X133750500Y-85401577D01*
X133750500Y-79874500D01*
X133770185Y-79807461D01*
X133822989Y-79761706D01*
X133874500Y-79750500D01*
X166375500Y-79750500D01*
X166442539Y-79770185D01*
G37*
%TD.AperFunction*%
%TD*%
M02*
